[start] 2026-03-24 13:54:48 KST render_anime_video_fixed_rerun
/Users/gimdoi/.openclaw/workspace/local-free-character-video-m1/scripts/render_anime_video.py:33: SyntaxWarning: invalid escape sequence '\ '
  f"drawtext=fontfile=/System/Library/Fonts/Supplemental/Verdana\ Bold.ttf:text='{caption}':fontcolor=white:fontsize=58:x=80:y=1580:line_spacing=12,"
ffmpeg version 7.1 Copyright (c) 2000-2024 the FFmpeg developers
  built with Apple clang version 16.0.0 (clang-1600.0.26.4)
  configuration: --prefix=/opt/homebrew/Cellar/ffmpeg/7.1_3 --enable-shared --enable-pthreads --enable-version3 --cc=clang --host-cflags= --host-ldflags='-Wl,-ld_classic' --enable-ffplay --enable-gnutls --enable-gpl --enable-libaom --enable-libaribb24 --enable-libbluray --enable-libdav1d --enable-libharfbuzz --enable-libjxl --enable-libmp3lame --enable-libopus --enable-librav1e --enable-librist --enable-librubberband --enable-libsnappy --enable-libsrt --enable-libssh --enable-libsvtav1 --enable-libtesseract --enable-libtheora --enable-libvidstab --enable-libvmaf --enable-libvorbis --enable-libvpx --enable-libwebp --enable-libx264 --enable-libx265 --enable-libxml2 --enable-libxvid --enable-lzma --enable-libfontconfig --enable-libfreetype --enable-frei0r --enable-libass --enable-libopencore-amrnb --enable-libopencore-amrwb --enable-libopenjpeg --enable-libspeex --enable-libsoxr --enable-libzmq --enable-libzimg --disable-libjack --disable-indev=jack --enable-videotoolbox --enable-audiotoolbox --enable-neon
  libavutil      59. 39.100 / 59. 39.100
  libavcodec     61. 19.100 / 61. 19.100
  libavformat    61.  7.100 / 61.  7.100
  libavdevice    61.  3.100 / 61.  3.100
  libavfilter    10.  4.100 / 10.  4.100
  libswscale      8.  3.100 /  8.  3.100
  libswresample   5.  3.100 /  5.  3.100
  libpostproc    58.  3.100 / 58.  3.100
Input #0, png_pipe, from 'local-free-character-video-m1/results/anime_stills_rerun/scene_01.png':
  Duration: N/A, bitrate: N/A
  Stream #0:0: Video: png, rgb24(pc, gbr/unknown/unknown), 576x1024, 25 fps, 25 tbr, 25 tbn
Stream mapping:
  Stream #0:0 -> #0:0 (png (native) -> h264 (libx264))
Press [q] to stop, [?] for help
[libx264 @ 0x88f068a80] using cpu capabilities: ARMv8 NEON
[libx264 @ 0x88f068a80] profile High, level 4.0, 4:2:0, 8-bit
[libx264 @ 0x88f068a80] 264 - core 164 r3108 31e19f9 - H.264/MPEG-4 AVC codec - Copyleft 2003-2023 - http://www.videolan.org/x264.html - options: cabac=1 ref=3 deblock=1:0:0 analyse=0x3:0x113 me=hex subme=7 psy=1 psy_rd=1.00:0.00 mixed_ref=1 me_range=16 chroma_me=1 trellis=1 8x8dct=1 cqm=0 deadzone=21,11 fast_pskip=1 chroma_qp_offset=-2 threads=15 lookahead_threads=2 sliced_threads=0 nr=0 decimate=1 interlaced=0 bluray_compat=0 constrained_intra=0 bframes=3 b_pyramid=2 b_adapt=1 b_bias=0 direct=1 weightb=1 open_gop=0 weightp=2 keyint=250 keyint_min=25 scenecut=40 intra_refresh=0 rc_lookahead=40 rc=crf mbtree=1 crf=23.0 qcomp=0.60 qpmin=0 qpmax=69 qpstep=4 ip_ratio=1.40 aq=1:1.00
Output #0, mp4, to 'local-free-character-video-m1/results/anime_clips/scene_01.mp4':
  Metadata:
    encoder         : Lavf61.7.100
  Stream #0:0: Video: h264 (avc1 / 0x31637661), yuv420p(tv, progressive), 1080x1920, q=2-31, 30 fps, 15360 tbn
      Metadata:
        encoder         : Lavc61.19.100 libx264
      Side data:
        cpb: bitrate max/min/avg: 0/0/0 buffer size: 0 vbv_delay: N/A
frame=    0 fps=0.0 q=0.0 size=       0KiB time=N/A bitrate=N/A speed=N/A    frame=   55 fps= 45 q=29.0 size=     768KiB time=00:00:01.76 bitrate=3561.4kbits/s speed=1.44x    frame=  123 fps= 66 q=29.0 size=    1536KiB time=00:00:04.03 bitrate=3119.8kbits/s speed=2.15x    [out#0/mp4 @ 0x88ec08840] video:1732KiB audio:0KiB subtitle:0KiB other streams:0KiB global headers:0KiB muxing overhead: 0.149102%
frame=  150 fps= 75 q=-1.0 Lsize=    1734KiB time=00:00:04.93 bitrate=2879.9kbits/s speed=2.45x    
[libx264 @ 0x88f068a80] frame I:2     Avg QP:14.98  size: 39834
[libx264 @ 0x88f068a80] frame P:39    Avg QP:21.56  size: 33412
[libx264 @ 0x88f068a80] frame B:109   Avg QP:27.63  size:  3577
[libx264 @ 0x88f068a80] consecutive B-frames:  2.0%  1.3%  6.0% 90.7%
[libx264 @ 0x88f068a80] mb I  I16..4: 54.6% 33.2% 12.2%
[libx264 @ 0x88f068a80] mb P  I16..4:  1.0%  2.2%  0.6%  P16..4: 40.2% 14.8% 11.0%  0.0%  0.0%    skip:30.3%
[libx264 @ 0x88f068a80] mb B  I16..4:  0.1%  0.2%  0.0%  B16..8: 32.9%  1.3%  0.2%  direct: 1.1%  skip:64.2%  L0:44.7% L1:51.0% BI: 4.2%
[libx264 @ 0x88f068a80] 8x8 transform intra:44.6% inter:68.5%
[libx264 @ 0x88f068a80] coded y,uvDC,uvAC intra: 25.3% 29.3% 14.1% inter: 5.6% 8.8% 3.1%
[libx264 @ 0x88f068a80] i16 v,h,dc,p: 78% 12%  5%  5%
[libx264 @ 0x88f068a80] i8 v,h,dc,ddl,ddr,vr,hd,vl,hu: 19% 14% 41%  5%  5%  4%  5%  4%  4%
[libx264 @ 0x88f068a80] i4 v,h,dc,ddl,ddr,vr,hd,vl,hu: 22% 21% 27%  4%  8%  6%  6%  4%  3%
[libx264 @ 0x88f068a80] i8c dc,h,v,p: 73% 14% 11%  1%
[libx264 @ 0x88f068a80] Weighted P-Frames: Y:23.1% UV:23.1%
[libx264 @ 0x88f068a80] ref P L0: 64.2% 10.0% 14.2% 11.6%  0.0%
[libx264 @ 0x88f068a80] ref B L0: 93.2%  5.8%  1.0%
[libx264 @ 0x88f068a80] ref B L1: 93.3%  6.7%
[libx264 @ 0x88f068a80] kb/s:2836.15
ffmpeg version 7.1 Copyright (c) 2000-2024 the FFmpeg developers
  built with Apple clang version 16.0.0 (clang-1600.0.26.4)
  configuration: --prefix=/opt/homebrew/Cellar/ffmpeg/7.1_3 --enable-shared --enable-pthreads --enable-version3 --cc=clang --host-cflags= --host-ldflags='-Wl,-ld_classic' --enable-ffplay --enable-gnutls --enable-gpl --enable-libaom --enable-libaribb24 --enable-libbluray --enable-libdav1d --enable-libharfbuzz --enable-libjxl --enable-libmp3lame --enable-libopus --enable-librav1e --enable-librist --enable-librubberband --enable-libsnappy --enable-libsrt --enable-libssh --enable-libsvtav1 --enable-libtesseract --enable-libtheora --enable-libvidstab --enable-libvmaf --enable-libvorbis --enable-libvpx --enable-libwebp --enable-libx264 --enable-libx265 --enable-libxml2 --enable-libxvid --enable-lzma --enable-libfontconfig --enable-libfreetype --enable-frei0r --enable-libass --enable-libopencore-amrnb --enable-libopencore-amrwb --enable-libopenjpeg --enable-libspeex --enable-libsoxr --enable-libzmq --enable-libzimg --disable-libjack --disable-indev=jack --enable-videotoolbox --enable-audiotoolbox --enable-neon
  libavutil      59. 39.100 / 59. 39.100
  libavcodec     61. 19.100 / 61. 19.100
  libavformat    61.  7.100 / 61.  7.100
  libavdevice    61.  3.100 / 61.  3.100
  libavfilter    10.  4.100 / 10.  4.100
  libswscale      8.  3.100 /  8.  3.100
  libswresample   5.  3.100 /  5.  3.100
  libpostproc    58.  3.100 / 58.  3.100
Input #0, png_pipe, from 'local-free-character-video-m1/results/anime_stills_rerun/scene_02.png':
  Duration: N/A, bitrate: N/A
  Stream #0:0: Video: png, rgb24(pc, gbr/unknown/unknown), 576x1024, 25 fps, 25 tbr, 25 tbn
Stream mapping:
  Stream #0:0 -> #0:0 (png (native) -> h264 (libx264))
Press [q] to stop, [?] for help
[libx264 @ 0x967058a80] using cpu capabilities: ARMv8 NEON
[libx264 @ 0x967058a80] profile High, level 4.0, 4:2:0, 8-bit
[libx264 @ 0x967058a80] 264 - core 164 r3108 31e19f9 - H.264/MPEG-4 AVC codec - Copyleft 2003-2023 - http://www.videolan.org/x264.html - options: cabac=1 ref=3 deblock=1:0:0 analyse=0x3:0x113 me=hex subme=7 psy=1 psy_rd=1.00:0.00 mixed_ref=1 me_range=16 chroma_me=1 trellis=1 8x8dct=1 cqm=0 deadzone=21,11 fast_pskip=1 chroma_qp_offset=-2 threads=15 lookahead_threads=2 sliced_threads=0 nr=0 decimate=1 interlaced=0 bluray_compat=0 constrained_intra=0 bframes=3 b_pyramid=2 b_adapt=1 b_bias=0 direct=1 weightb=1 open_gop=0 weightp=2 keyint=250 keyint_min=25 scenecut=40 intra_refresh=0 rc_lookahead=40 rc=crf mbtree=1 crf=23.0 qcomp=0.60 qpmin=0 qpmax=69 qpstep=4 ip_ratio=1.40 aq=1:1.00
Output #0, mp4, to 'local-free-character-video-m1/results/anime_clips/scene_02.mp4':
  Metadata:
    encoder         : Lavf61.7.100
  Stream #0:0: Video: h264 (avc1 / 0x31637661), yuv420p(tv, progressive), 1080x1920, q=2-31, 30 fps, 15360 tbn
      Metadata:
        encoder         : Lavc61.19.100 libx264
      Side data:
        cpb: bitrate max/min/avg: 0/0/0 buffer size: 0 vbv_delay: N/A
frame=    0 fps=0.0 q=0.0 size=       0KiB time=N/A bitrate=N/A speed=N/A    frame=   40 fps= 39 q=29.0 size=     512KiB time=00:00:01.26 bitrate=3311.6kbits/s speed=1.23x    frame=  114 fps= 68 q=29.0 size=    1280KiB time=00:00:03.73 bitrate=2808.8kbits/s speed=2.23x    [out#0/mp4 @ 0x966c54300] video:1579KiB audio:0KiB subtitle:0KiB other streams:0KiB global headers:0KiB muxing overhead: 0.164552%
frame=  150 fps= 81 q=-1.0 Lsize=    1581KiB time=00:00:04.93 bitrate=2625.7kbits/s speed=2.65x    
[libx264 @ 0x967058a80] frame I:2     Avg QP:15.24  size: 33240
[libx264 @ 0x967058a80] frame P:39    Avg QP:21.31  size: 29487
[libx264 @ 0x967058a80] frame B:109   Avg QP:26.49  size:  3664
[libx264 @ 0x967058a80] consecutive B-frames:  2.0%  2.7%  2.0% 93.3%
[libx264 @ 0x967058a80] mb I  I16..4: 54.3% 35.2% 10.5%
[libx264 @ 0x967058a80] mb P  I16..4:  1.0%  2.4%  0.6%  P16..4: 39.7% 13.3%  9.5%  0.0%  0.0%    skip:33.5%
[libx264 @ 0x967058a80] mb B  I16..4:  0.2%  0.3%  0.0%  B16..8: 32.6%  1.4%  0.2%  direct: 1.2%  skip:64.1%  L0:44.6% L1:50.4% BI: 5.0%
[libx264 @ 0x967058a80] 8x8 transform intra:46.8% inter:69.7%
[libx264 @ 0x967058a80] coded y,uvDC,uvAC intra: 23.0% 27.6% 12.2% inter: 5.3% 7.6% 2.0%
[libx264 @ 0x967058a80] i16 v,h,dc,p: 75% 15%  5%  5%
[libx264 @ 0x967058a80] i8 v,h,dc,ddl,ddr,vr,hd,vl,hu: 27% 15% 38%  3%  4%  4%  4%  3%  3%
[libx264 @ 0x967058a80] i4 v,h,dc,ddl,ddr,vr,hd,vl,hu: 30% 23% 22%  3%  6%  5%  5%  3%  3%
[libx264 @ 0x967058a80] i8c dc,h,v,p: 74% 13% 12%  1%
[libx264 @ 0x967058a80] Weighted P-Frames: Y:17.9% UV:17.9%
[libx264 @ 0x967058a80] ref P L0: 65.0%  9.4% 15.2% 10.4%  0.0%
[libx264 @ 0x967058a80] ref B L0: 94.3%  4.8%  1.0%
[libx264 @ 0x967058a80] ref B L1: 95.2%  4.8%
[libx264 @ 0x967058a80] kb/s:2585.31
ffmpeg version 7.1 Copyright (c) 2000-2024 the FFmpeg developers
  built with Apple clang version 16.0.0 (clang-1600.0.26.4)
  configuration: --prefix=/opt/homebrew/Cellar/ffmpeg/7.1_3 --enable-shared --enable-pthreads --enable-version3 --cc=clang --host-cflags= --host-ldflags='-Wl,-ld_classic' --enable-ffplay --enable-gnutls --enable-gpl --enable-libaom --enable-libaribb24 --enable-libbluray --enable-libdav1d --enable-libharfbuzz --enable-libjxl --enable-libmp3lame --enable-libopus --enable-librav1e --enable-librist --enable-librubberband --enable-libsnappy --enable-libsrt --enable-libssh --enable-libsvtav1 --enable-libtesseract --enable-libtheora --enable-libvidstab --enable-libvmaf --enable-libvorbis --enable-libvpx --enable-libwebp --enable-libx264 --enable-libx265 --enable-libxml2 --enable-libxvid --enable-lzma --enable-libfontconfig --enable-libfreetype --enable-frei0r --enable-libass --enable-libopencore-amrnb --enable-libopencore-amrwb --enable-libopenjpeg --enable-libspeex --enable-libsoxr --enable-libzmq --enable-libzimg --disable-libjack --disable-indev=jack --enable-videotoolbox --enable-audiotoolbox --enable-neon
  libavutil      59. 39.100 / 59. 39.100
  libavcodec     61. 19.100 / 61. 19.100
  libavformat    61.  7.100 / 61.  7.100
  libavdevice    61.  3.100 / 61.  3.100
  libavfilter    10.  4.100 / 10.  4.100
  libswscale      8.  3.100 /  8.  3.100
  libswresample   5.  3.100 /  5.  3.100
  libpostproc    58.  3.100 / 58.  3.100
Input #0, png_pipe, from 'local-free-character-video-m1/results/anime_stills_rerun/scene_03.png':
  Duration: N/A, bitrate: N/A
  Stream #0:0: Video: png, rgb24(pc, gbr/unknown/unknown), 576x1024, 25 fps, 25 tbr, 25 tbn
Stream mapping:
  Stream #0:0 -> #0:0 (png (native) -> h264 (libx264))
Press [q] to stop, [?] for help
[libx264 @ 0x8d2c50a80] using cpu capabilities: ARMv8 NEON
[libx264 @ 0x8d2c50a80] profile High, level 4.0, 4:2:0, 8-bit
[libx264 @ 0x8d2c50a80] 264 - core 164 r3108 31e19f9 - H.264/MPEG-4 AVC codec - Copyleft 2003-2023 - http://www.videolan.org/x264.html - options: cabac=1 ref=3 deblock=1:0:0 analyse=0x3:0x113 me=hex subme=7 psy=1 psy_rd=1.00:0.00 mixed_ref=1 me_range=16 chroma_me=1 trellis=1 8x8dct=1 cqm=0 deadzone=21,11 fast_pskip=1 chroma_qp_offset=-2 threads=15 lookahead_threads=2 sliced_threads=0 nr=0 decimate=1 interlaced=0 bluray_compat=0 constrained_intra=0 bframes=3 b_pyramid=2 b_adapt=1 b_bias=0 direct=1 weightb=1 open_gop=0 weightp=2 keyint=250 keyint_min=25 scenecut=40 intra_refresh=0 rc_lookahead=40 rc=crf mbtree=1 crf=23.0 qcomp=0.60 qpmin=0 qpmax=69 qpstep=4 ip_ratio=1.40 aq=1:1.00
Output #0, mp4, to 'local-free-character-video-m1/results/anime_clips/scene_03.mp4':
  Metadata:
    encoder         : Lavf61.7.100
  Stream #0:0: Video: h264 (avc1 / 0x31637661), yuv420p(tv, progressive), 1080x1920, q=2-31, 30 fps, 15360 tbn
      Metadata:
        encoder         : Lavc61.19.100 libx264
      Side data:
        cpb: bitrate max/min/avg: 0/0/0 buffer size: 0 vbv_delay: N/A
frame=    0 fps=0.0 q=0.0 size=       0KiB time=N/A bitrate=N/A speed=N/A    frame=   56 fps= 47 q=29.0 size=     768KiB time=00:00:01.80 bitrate=3495.5kbits/s speed=1.52x    frame=  115 fps= 68 q=29.0 size=    1280KiB time=00:00:03.76 bitrate=2783.9kbits/s speed=2.22x    [out#0/mp4 @ 0x8d3038300] video:1691KiB audio:0KiB subtitle:0KiB other streams:0KiB global headers:0KiB muxing overhead: 0.152725%
frame=  150 fps= 80 q=-1.0 Lsize=    1693KiB time=00:00:04.93 bitrate=2811.7kbits/s speed=2.63x    
[libx264 @ 0x8d2c50a80] frame I:2     Avg QP:14.70  size: 37902
[libx264 @ 0x8d2c50a80] frame P:40    Avg QP:21.21  size: 31595
[libx264 @ 0x8d2c50a80] frame B:108   Avg QP:26.25  size:  3620
[libx264 @ 0x8d2c50a80] consecutive B-frames:  2.0%  4.0%  6.0% 88.0%
[libx264 @ 0x8d2c50a80] mb I  I16..4: 54.0% 35.0% 10.9%
[libx264 @ 0x8d2c50a80] mb P  I16..4:  1.1%  2.2%  0.7%  P16..4: 39.4% 13.6% 10.1%  0.0%  0.0%    skip:32.9%
[libx264 @ 0x8d2c50a80] mb B  I16..4:  0.2%  0.2%  0.0%  B16..8: 32.3%  1.2%  0.2%  direct: 1.2%  skip:64.6%  L0:45.5% L1:50.1% BI: 4.4%
[libx264 @ 0x8d2c50a80] 8x8 transform intra:44.9% inter:70.3%
[libx264 @ 0x8d2c50a80] coded y,uvDC,uvAC intra: 24.1% 33.4% 16.4% inter: 5.4% 9.2% 3.3%
[libx264 @ 0x8d2c50a80] i16 v,h,dc,p: 75% 14%  5%  5%
[libx264 @ 0x8d2c50a80] i8 v,h,dc,ddl,ddr,vr,hd,vl,hu: 21% 14% 43%  4%  4%  4%  4%  3%  4%
[libx264 @ 0x8d2c50a80] i4 v,h,dc,ddl,ddr,vr,hd,vl,hu: 25% 23% 24%  4%  7%  5%  6%  4%  3%
[libx264 @ 0x8d2c50a80] i8c dc,h,v,p: 74% 14% 11%  1%
[libx264 @ 0x8d2c50a80] Weighted P-Frames: Y:20.0% UV:20.0%
[libx264 @ 0x8d2c50a80] ref P L0: 66.5%  9.6% 12.7% 11.2%
[libx264 @ 0x8d2c50a80] ref B L0: 93.0%  6.1%  0.9%
[libx264 @ 0x8d2c50a80] ref B L1: 94.8%  5.2%
[libx264 @ 0x8d2c50a80] kb/s:2768.84
ffmpeg version 7.1 Copyright (c) 2000-2024 the FFmpeg developers
  built with Apple clang version 16.0.0 (clang-1600.0.26.4)
  configuration: --prefix=/opt/homebrew/Cellar/ffmpeg/7.1_3 --enable-shared --enable-pthreads --enable-version3 --cc=clang --host-cflags= --host-ldflags='-Wl,-ld_classic' --enable-ffplay --enable-gnutls --enable-gpl --enable-libaom --enable-libaribb24 --enable-libbluray --enable-libdav1d --enable-libharfbuzz --enable-libjxl --enable-libmp3lame --enable-libopus --enable-librav1e --enable-librist --enable-librubberband --enable-libsnappy --enable-libsrt --enable-libssh --enable-libsvtav1 --enable-libtesseract --enable-libtheora --enable-libvidstab --enable-libvmaf --enable-libvorbis --enable-libvpx --enable-libwebp --enable-libx264 --enable-libx265 --enable-libxml2 --enable-libxvid --enable-lzma --enable-libfontconfig --enable-libfreetype --enable-frei0r --enable-libass --enable-libopencore-amrnb --enable-libopencore-amrwb --enable-libopenjpeg --enable-libspeex --enable-libsoxr --enable-libzmq --enable-libzimg --disable-libjack --disable-indev=jack --enable-videotoolbox --enable-audiotoolbox --enable-neon
  libavutil      59. 39.100 / 59. 39.100
  libavcodec     61. 19.100 / 61. 19.100
  libavformat    61.  7.100 / 61.  7.100
  libavdevice    61.  3.100 / 61.  3.100
  libavfilter    10.  4.100 / 10.  4.100
  libswscale      8.  3.100 /  8.  3.100
  libswresample   5.  3.100 /  5.  3.100
  libpostproc    58.  3.100 / 58.  3.100
Input #0, png_pipe, from 'local-free-character-video-m1/results/anime_stills_rerun/scene_04.png':
  Duration: N/A, bitrate: N/A
  Stream #0:0: Video: png, rgb24(pc, gbr/unknown/unknown), 576x1024, 25 fps, 25 tbr, 25 tbn
Stream mapping:
  Stream #0:0 -> #0:0 (png (native) -> h264 (libx264))
Press [q] to stop, [?] for help
[libx264 @ 0x70905ca80] using cpu capabilities: ARMv8 NEON
[libx264 @ 0x70905ca80] profile High, level 4.0, 4:2:0, 8-bit
[libx264 @ 0x70905ca80] 264 - core 164 r3108 31e19f9 - H.264/MPEG-4 AVC codec - Copyleft 2003-2023 - http://www.videolan.org/x264.html - options: cabac=1 ref=3 deblock=1:0:0 analyse=0x3:0x113 me=hex subme=7 psy=1 psy_rd=1.00:0.00 mixed_ref=1 me_range=16 chroma_me=1 trellis=1 8x8dct=1 cqm=0 deadzone=21,11 fast_pskip=1 chroma_qp_offset=-2 threads=15 lookahead_threads=2 sliced_threads=0 nr=0 decimate=1 interlaced=0 bluray_compat=0 constrained_intra=0 bframes=3 b_pyramid=2 b_adapt=1 b_bias=0 direct=1 weightb=1 open_gop=0 weightp=2 keyint=250 keyint_min=25 scenecut=40 intra_refresh=0 rc_lookahead=40 rc=crf mbtree=1 crf=23.0 qcomp=0.60 qpmin=0 qpmax=69 qpstep=4 ip_ratio=1.40 aq=1:1.00
Output #0, mp4, to 'local-free-character-video-m1/results/anime_clips/scene_04.mp4':
  Metadata:
    encoder         : Lavf61.7.100
  Stream #0:0: Video: h264 (avc1 / 0x31637661), yuv420p(tv, progressive), 1080x1920, q=2-31, 30 fps, 15360 tbn
      Metadata:
        encoder         : Lavc61.19.100 libx264
      Side data:
        cpb: bitrate max/min/avg: 0/0/0 buffer size: 0 vbv_delay: N/A
frame=    2 fps=0.0 q=29.0 size=       0KiB time=00:00:00.00 bitrate=N/A speed=   0x    frame=   67 fps= 53 q=29.0 size=     768KiB time=00:00:02.16 bitrate=2903.9kbits/s speed=1.71x    [out#0/mp4 @ 0x708c48300] video:1720KiB audio:0KiB subtitle:0KiB other streams:0KiB global headers:0KiB muxing overhead: 0.150120%
frame=  150 fps= 81 q=-1.0 Lsize=    1723KiB time=00:00:04.93 bitrate=2860.4kbits/s speed=2.65x    
[libx264 @ 0x70905ca80] frame I:2     Avg QP:14.95  size: 39793
[libx264 @ 0x70905ca80] frame P:40    Avg QP:21.71  size: 32632
[libx264 @ 0x70905ca80] frame B:108   Avg QP:27.80  size:  3479
[libx264 @ 0x70905ca80] consecutive B-frames:  2.0%  4.0%  6.0% 88.0%
[libx264 @ 0x70905ca80] mb I  I16..4: 53.2% 34.5% 12.3%
[libx264 @ 0x70905ca80] mb P  I16..4:  0.9%  2.2%  0.7%  P16..4: 39.6% 14.0% 10.5%  0.0%  0.0%    skip:32.0%
[libx264 @ 0x70905ca80] mb B  I16..4:  0.2%  0.2%  0.0%  B16..8: 31.5%  1.4%  0.2%  direct: 1.1%  skip:65.6%  L0:47.0% L1:48.8% BI: 4.2%
[libx264 @ 0x70905ca80] 8x8 transform intra:45.4% inter:68.4%
[libx264 @ 0x70905ca80] coded y,uvDC,uvAC intra: 26.2% 28.9% 14.9% inter: 5.6% 9.0% 3.4%
[libx264 @ 0x70905ca80] i16 v,h,dc,p: 79% 12%  4%  4%
[libx264 @ 0x70905ca80] i8 v,h,dc,ddl,ddr,vr,hd,vl,hu: 24% 13% 39%  4%  4%  5%  4%  4%  3%
[libx264 @ 0x70905ca80] i4 v,h,dc,ddl,ddr,vr,hd,vl,hu: 29% 22% 24%  3%  6%  6%  5%  4%  2%
[libx264 @ 0x70905ca80] i8c dc,h,v,p: 74% 13% 12%  1%
[libx264 @ 0x70905ca80] Weighted P-Frames: Y:22.5% UV:22.5%
[libx264 @ 0x70905ca80] ref P L0: 67.0% 10.0% 12.3% 10.7%  0.0%
[libx264 @ 0x70905ca80] ref B L0: 92.1%  7.1%  0.8%
[libx264 @ 0x70905ca80] ref B L1: 96.0%  4.0%
[libx264 @ 0x70905ca80] kb/s:2816.90
ffmpeg version 7.1 Copyright (c) 2000-2024 the FFmpeg developers
  built with Apple clang version 16.0.0 (clang-1600.0.26.4)
  configuration: --prefix=/opt/homebrew/Cellar/ffmpeg/7.1_3 --enable-shared --enable-pthreads --enable-version3 --cc=clang --host-cflags= --host-ldflags='-Wl,-ld_classic' --enable-ffplay --enable-gnutls --enable-gpl --enable-libaom --enable-libaribb24 --enable-libbluray --enable-libdav1d --enable-libharfbuzz --enable-libjxl --enable-libmp3lame --enable-libopus --enable-librav1e --enable-librist --enable-librubberband --enable-libsnappy --enable-libsrt --enable-libssh --enable-libsvtav1 --enable-libtesseract --enable-libtheora --enable-libvidstab --enable-libvmaf --enable-libvorbis --enable-libvpx --enable-libwebp --enable-libx264 --enable-libx265 --enable-libxml2 --enable-libxvid --enable-lzma --enable-libfontconfig --enable-libfreetype --enable-frei0r --enable-libass --enable-libopencore-amrnb --enable-libopencore-amrwb --enable-libopenjpeg --enable-libspeex --enable-libsoxr --enable-libzmq --enable-libzimg --disable-libjack --disable-indev=jack --enable-videotoolbox --enable-audiotoolbox --enable-neon
  libavutil      59. 39.100 / 59. 39.100
  libavcodec     61. 19.100 / 61. 19.100
  libavformat    61.  7.100 / 61.  7.100
  libavdevice    61.  3.100 / 61.  3.100
  libavfilter    10.  4.100 / 10.  4.100
  libswscale      8.  3.100 /  8.  3.100
  libswresample   5.  3.100 /  5.  3.100
  libpostproc    58.  3.100 / 58.  3.100
Input #0, png_pipe, from 'local-free-character-video-m1/results/anime_stills_rerun/scene_05.png':
  Duration: N/A, bitrate: N/A
  Stream #0:0: Video: png, rgb24(pc, gbr/unknown/unknown), 576x1024, 25 fps, 25 tbr, 25 tbn
Stream mapping:
  Stream #0:0 -> #0:0 (png (native) -> h264 (libx264))
Press [q] to stop, [?] for help
[libx264 @ 0xc41064a80] using cpu capabilities: ARMv8 NEON
[libx264 @ 0xc41064a80] profile High, level 4.0, 4:2:0, 8-bit
[libx264 @ 0xc41064a80] 264 - core 164 r3108 31e19f9 - H.264/MPEG-4 AVC codec - Copyleft 2003-2023 - http://www.videolan.org/x264.html - options: cabac=1 ref=3 deblock=1:0:0 analyse=0x3:0x113 me=hex subme=7 psy=1 psy_rd=1.00:0.00 mixed_ref=1 me_range=16 chroma_me=1 trellis=1 8x8dct=1 cqm=0 deadzone=21,11 fast_pskip=1 chroma_qp_offset=-2 threads=15 lookahead_threads=2 sliced_threads=0 nr=0 decimate=1 interlaced=0 bluray_compat=0 constrained_intra=0 bframes=3 b_pyramid=2 b_adapt=1 b_bias=0 direct=1 weightb=1 open_gop=0 weightp=2 keyint=250 keyint_min=25 scenecut=40 intra_refresh=0 rc_lookahead=40 rc=crf mbtree=1 crf=23.0 qcomp=0.60 qpmin=0 qpmax=69 qpstep=4 ip_ratio=1.40 aq=1:1.00
Output #0, mp4, to 'local-free-character-video-m1/results/anime_clips/scene_05.mp4':
  Metadata:
    encoder         : Lavf61.7.100
  Stream #0:0: Video: h264 (avc1 / 0x31637661), yuv420p(tv, progressive), 1080x1920, q=2-31, 30 fps, 15360 tbn
      Metadata:
        encoder         : Lavc61.19.100 libx264
      Side data:
        cpb: bitrate max/min/avg: 0/0/0 buffer size: 0 vbv_delay: N/A
frame=    2 fps=0.0 q=29.0 size=       0KiB time=00:00:00.00 bitrate=N/A speed=   0x    frame=   75 fps= 58 q=29.0 size=     768KiB time=00:00:02.43 bitrate=2585.7kbits/s speed=1.89x    [out#0/mp4 @ 0xc41058300] video:1158KiB audio:0KiB subtitle:0KiB other streams:0KiB global headers:0KiB muxing overhead: 0.193981%
frame=  120 fps= 76 q=-1.0 Lsize=    1160KiB time=00:00:03.93 bitrate=2416.2kbits/s speed=2.51x    
[libx264 @ 0xc41064a80] frame I:2     Avg QP:15.40  size: 26544
[libx264 @ 0xc41064a80] frame P:31    Avg QP:20.53  size: 26302
[libx264 @ 0xc41064a80] frame B:87    Avg QP:25.60  size:  3638
[libx264 @ 0xc41064a80] consecutive B-frames:  2.5%  1.7%  2.5% 93.3%
[libx264 @ 0xc41064a80] mb I  I16..4: 54.5% 38.7%  6.8%
[libx264 @ 0xc41064a80] mb P  I16..4:  1.6%  3.2%  0.4%  P16..4: 37.4% 11.4%  8.6%  0.0%  0.0%    skip:37.3%
[libx264 @ 0xc41064a80] mb B  I16..4:  0.4%  0.4%  0.0%  B16..8: 31.6%  0.7%  0.1%  direct: 1.8%  skip:65.0%  L0:44.3% L1:51.6% BI: 4.1%
[libx264 @ 0xc41064a80] 8x8 transform intra:49.2% inter:73.5%
[libx264 @ 0xc41064a80] coded y,uvDC,uvAC intra: 18.5% 29.0% 10.5% inter: 5.1% 9.1% 2.2%
[libx264 @ 0xc41064a80] i16 v,h,dc,p: 74% 12%  6%  8%
[libx264 @ 0xc41064a80] i8 v,h,dc,ddl,ddr,vr,hd,vl,hu: 23% 10% 46%  5%  3%  2%  3%  4%  3%
[libx264 @ 0xc41064a80] i4 v,h,dc,ddl,ddr,vr,hd,vl,hu: 22% 17% 29%  5%  9%  5%  6%  5%  3%
[libx264 @ 0xc41064a80] i8c dc,h,v,p: 76% 13% 10%  1%
[libx264 @ 0xc41064a80] Weighted P-Frames: Y:25.8% UV:25.8%
[libx264 @ 0xc41064a80] ref P L0: 71.2%  9.4% 12.0%  7.5%  0.0%
[libx264 @ 0xc41064a80] ref B L0: 92.6%  6.2%  1.2%
[libx264 @ 0xc41064a80] ref B L1: 96.4%  3.6%
[libx264 @ 0xc41064a80] kb/s:2369.99
ffmpeg version 7.1 Copyright (c) 2000-2024 the FFmpeg developers
  built with Apple clang version 16.0.0 (clang-1600.0.26.4)
  configuration: --prefix=/opt/homebrew/Cellar/ffmpeg/7.1_3 --enable-shared --enable-pthreads --enable-version3 --cc=clang --host-cflags= --host-ldflags='-Wl,-ld_classic' --enable-ffplay --enable-gnutls --enable-gpl --enable-libaom --enable-libaribb24 --enable-libbluray --enable-libdav1d --enable-libharfbuzz --enable-libjxl --enable-libmp3lame --enable-libopus --enable-librav1e --enable-librist --enable-librubberband --enable-libsnappy --enable-libsrt --enable-libssh --enable-libsvtav1 --enable-libtesseract --enable-libtheora --enable-libvidstab --enable-libvmaf --enable-libvorbis --enable-libvpx --enable-libwebp --enable-libx264 --enable-libx265 --enable-libxml2 --enable-libxvid --enable-lzma --enable-libfontconfig --enable-libfreetype --enable-frei0r --enable-libass --enable-libopencore-amrnb --enable-libopencore-amrwb --enable-libopenjpeg --enable-libspeex --enable-libsoxr --enable-libzmq --enable-libzimg --disable-libjack --disable-indev=jack --enable-videotoolbox --enable-audiotoolbox --enable-neon
  libavutil      59. 39.100 / 59. 39.100
  libavcodec     61. 19.100 / 61. 19.100
  libavformat    61.  7.100 / 61.  7.100
  libavdevice    61.  3.100 / 61.  3.100
  libavfilter    10.  4.100 / 10.  4.100
  libswscale      8.  3.100 /  8.  3.100
  libswresample   5.  3.100 /  5.  3.100
  libpostproc    58.  3.100 / 58.  3.100
[mov,mp4,m4a,3gp,3g2,mj2 @ 0x79103c280] Auto-inserting h264_mp4toannexb bitstream filter
Input #0, concat, from '/Users/gimdoi/.openclaw/workspace/local-free-character-video-m1/results/concat_list.txt':
  Duration: N/A, start: 0.000000, bitrate: 2837 kb/s
  Stream #0:0(und): Video: h264 (High) (avc1 / 0x31637661), yuv420p(progressive), 1080x1920, 2837 kb/s, 30 fps, 30 tbr, 15360 tbn
      Metadata:
        handler_name    : VideoHandler
        vendor_id       : [0][0][0][0]
        encoder         : Lavc61.19.100 libx264
Stream mapping:
  Stream #0:0 -> #0:0 (h264 (native) -> h264 (libx264))
Press [q] to stop, [?] for help
[libx264 @ 0x791069180] using cpu capabilities: ARMv8 NEON
[libx264 @ 0x791069180] profile High, level 4.0, 4:2:0, 8-bit
[libx264 @ 0x791069180] 264 - core 164 r3108 31e19f9 - H.264/MPEG-4 AVC codec - Copyleft 2003-2023 - http://www.videolan.org/x264.html - options: cabac=1 ref=3 deblock=1:0:0 analyse=0x3:0x113 me=hex subme=7 psy=1 psy_rd=1.00:0.00 mixed_ref=1 me_range=16 chroma_me=1 trellis=1 8x8dct=1 cqm=0 deadzone=21,11 fast_pskip=1 chroma_qp_offset=-2 threads=15 lookahead_threads=2 sliced_threads=0 nr=0 decimate=1 interlaced=0 bluray_compat=0 constrained_intra=0 bframes=3 b_pyramid=2 b_adapt=1 b_bias=0 direct=1 weightb=1 open_gop=0 weightp=2 keyint=250 keyint_min=25 scenecut=40 intra_refresh=0 rc_lookahead=40 rc=crf mbtree=1 crf=23.0 qcomp=0.60 qpmin=0 qpmax=69 qpstep=4 ip_ratio=1.40 aq=1:1.00
Output #0, mp4, to '/Users/gimdoi/.openclaw/workspace/local-free-character-video-m1/results/final_anime_rerun_fixed.mp4':
  Metadata:
    encoder         : Lavf61.7.100
  Stream #0:0(und): Video: h264 (avc1 / 0x31637661), yuv420p(tv, progressive), 1080x1920, q=2-31, 30 fps, 15360 tbn
      Metadata:
        handler_name    : VideoHandler
        vendor_id       : [0][0][0][0]
        encoder         : Lavc61.19.100 libx264
      Side data:
        cpb: bitrate max/min/avg: 0/0/0 buffer size: 0 vbv_delay: N/A
frame=   25 fps=0.0 q=29.0 size=     512KiB time=00:00:00.76 bitrate=5471.3kbits/s speed=1.18x    [mov,mp4,m4a,3gp,3g2,mj2 @ 0x79103c280] Auto-inserting h264_mp4toannexb bitstream filter
frame=   97 fps= 75 q=29.0 size=    1280KiB time=00:00:03.16 bitrate=3311.4kbits/s speed=2.44x    frame=  166 fps= 85 q=29.0 size=    2048KiB time=00:00:05.46 bitrate=3069.1kbits/s speed= 2.8x    [mov,mp4,m4a,3gp,3g2,mj2 @ 0x79103c280] Auto-inserting h264_mp4toannexb bitstream filter
frame=  240 fps= 92 q=29.0 size=    2816KiB time=00:00:07.93 bitrate=2907.9kbits/s speed=3.05x    frame=  307 fps= 94 q=29.0 size=    3584KiB time=00:00:10.16 bitrate=2887.9kbits/s speed=3.13x    [mov,mp4,m4a,3gp,3g2,mj2 @ 0x79103c280] Auto-inserting h264_mp4toannexb bitstream filter
frame=  368 fps= 98 q=29.0 size=    4352KiB time=00:00:12.20 bitrate=2922.3kbits/s speed=3.25x    frame=  438 fps= 99 q=26.0 size=    4864KiB time=00:00:14.53 bitrate=2741.7kbits/s speed= 3.3x    [mov,mp4,m4a,3gp,3g2,mj2 @ 0x79103c280] Auto-inserting h264_mp4toannexb bitstream filter
frame=  504 fps=100 q=29.0 size=    5888KiB time=00:00:16.73 bitrate=2882.6kbits/s speed=3.31x    frame=  571 fps=100 q=29.0 size=    6400KiB time=00:00:18.96 bitrate=2764.3kbits/s speed=3.32x    frame=  640 fps=101 q=29.0 size=    7424KiB time=00:00:21.26 bitrate=2859.8kbits/s speed=3.34x    [out#0/mp4 @ 0x790c089c0] video:8146KiB audio:0KiB subtitle:0KiB other streams:0KiB global headers:0KiB muxing overhead: 0.113937%
frame=  720 fps=103 q=-1.0 Lsize=    8155KiB time=00:00:23.93 bitrate=2791.4kbits/s speed=3.44x    
[libx264 @ 0x791069180] frame I:6     Avg QP:13.96  size: 62381
[libx264 @ 0x791069180] frame P:194   Avg QP:21.18  size: 29921
[libx264 @ 0x791069180] frame B:520   Avg QP:26.46  size:  4157
[libx264 @ 0x791069180] consecutive B-frames:  1.5%  4.7%  5.4% 88.3%
[libx264 @ 0x791069180] mb I  I16..4: 24.6% 58.3% 17.1%
[libx264 @ 0x791069180] mb P  I16..4:  1.2%  2.8%  0.6%  P16..4: 40.5% 14.3%  8.9%  0.0%  0.0%    skip:31.8%
[libx264 @ 0x791069180] mb B  I16..4:  0.3%  0.4%  0.0%  B16..8: 34.4%  1.3%  0.2%  direct: 1.4%  skip:62.1%  L0:44.7% L1:50.6% BI: 4.7%
[libx264 @ 0x791069180] 8x8 transform intra:60.1% inter:69.9%
[libx264 @ 0x791069180] coded y,uvDC,uvAC intra: 26.5% 36.9% 14.8% inter: 6.1% 8.5% 1.8%
[libx264 @ 0x791069180] i16 v,h,dc,p: 55% 25% 10%  9%
[libx264 @ 0x791069180] i8 v,h,dc,ddl,ddr,vr,hd,vl,hu: 24% 14% 42%  3%  4%  3%  3%  3%  3%
[libx264 @ 0x791069180] i4 v,h,dc,ddl,ddr,vr,hd,vl,hu: 27% 22% 25%  3%  7%  5%  5%  4%  2%
[libx264 @ 0x791069180] i8c dc,h,v,p: 66% 17% 15%  2%
[libx264 @ 0x791069180] Weighted P-Frames: Y:22.7% UV:22.7%
[libx264 @ 0x791069180] ref P L0: 69.0% 10.7% 14.0%  6.3%  0.0%
[libx264 @ 0x791069180] ref B L0: 93.6%  5.6%  0.8%
[libx264 @ 0x791069180] ref B L1: 96.7%  3.3%
[libx264 @ 0x791069180] kb/s:2780.26
[ok] wrote local-free-character-video-m1/results/final_anime_rerun_fixed.mp4
       16.71 real       127.88 user         2.31 sys
           913686528  maximum resident set size
                   0  average shared memory size
                   0  average unshared data size
                   0  average unshared stack size
              310055  page reclaims
                 688  page faults
                   0  swaps
                   0  block input operations
                   0  block output operations
                   0  messages sent
                   0  messages received
                   0  signals received
                  18  voluntary context switches
              193533  involuntary context switches
           288468602  instructions retired
           120316455  cycles elapsed
            10142720  peak memory footprint
